<svg xmlns="http://www.w3.org/2000/svg" viewBox="0 0 280 320" role="img" aria-label="QR BCP WAYNA">
  <rect width="280" height="320" rx="16" fill="#ffffff"/>
  <rect x="12" y="12" width="256" height="48" rx="8" fill="#003882"/>
  <text x="140" y="42" text-anchor="middle" fill="#ffffff" font-family="system-ui,sans-serif" font-size="14" font-weight="700">BCP · WAYNA Conecta</text>
  <rect x="40" y="72" width="200" height="200" rx="8" fill="#f8fafc" stroke="#003882" stroke-width="2"/>
  <g fill="#0f172a">
    <rect x="52" y="84" width="24" height="24"/><rect x="84" y="84" width="16" height="16"/><rect x="108" y="84" width="24" height="24"/>
    <rect x="140" y="84" width="16" height="16"/><rect x="164" y="84" width="24" height="24"/><rect x="196" y="84" width="16" height="16"/>
    <rect x="52" y="116" width="16" height="16"/><rect x="76" y="116" width="32" height="32"/><rect x="116" y="116" width="16" height="16"/>
    <rect x="140" y="116" width="40" height="16"/><rect x="188" y="116" width="24" height="24"/>
    <rect x="52" y="156" width="24" height="24"/><rect x="84" y="156" width="16" height="16"/><rect x="108" y="156" width="16" height="16"/>
    <rect x="132" y="156" width="32" height="32"/><rect x="172" y="156" width="16" height="16"/><rect x="196" y="156" width="16" height="16"/>
    <rect x="52" y="196" width="16" height="16"/><rect x="76" y="196" width="16" height="16"/><rect x="100" y="196" width="40" height="24"/>
    <rect x="148" y="196" width="16" height="16"/><rect x="172" y="196" width="32" height="32"/><rect x="212" y="196" width="16" height="16"/>
    <rect x="52" y="228" width="32" height="32"/><rect x="92" y="228" width="16" height="16"/><rect x="116" y="228" width="24" height="24"/>
    <rect x="148" y="228" width="16" height="16"/><rect x="172" y="228" width="16" height="16"/><rect x="196" y="228" width="24" height="24"/>
  </g>
  <text x="140" y="296" text-anchor="middle" fill="#57534e" font-family="system-ui,sans-serif" font-size="11">Reemplazar por QR oficial BCP</text>
</svg>
